<svg xmlns="http://www.w3.org/2000/svg" xmlns:xlink="http://www.w3.org/1999/xlink" width="1080" zoomAndPan="magnify" viewBox="0 0 810 809.999993" height="1080" preserveAspectRatio="xMidYMid meet" version="1.0"><defs><clipPath id="1b7b838f2d"><path d="M 172 363 L 691 363 L 691 711 L 172 711 Z M 172 363 " clip-rule="nonzero"/></clipPath><clipPath id="9aa60e55f3"><path d="M 101.3125 419.054688 L 496.402344 162.652344 L 749.949219 553.339844 L 354.855469 809.742188 Z M 101.3125 419.054688 " clip-rule="nonzero"/></clipPath><clipPath id="3774d80b5c"><path d="M 101.3125 419.054688 L 496.402344 162.652344 L 749.949219 553.339844 L 354.855469 809.742188 Z M 101.3125 419.054688 " clip-rule="nonzero"/></clipPath><clipPath id="e573228997"><path d="M 87 175 L 465 175 L 465 691 L 87 691 Z M 87 175 " clip-rule="nonzero"/></clipPath><clipPath id="13a8c27085"><path d="M 419.523438 111.535156 L 624.65625 535.519531 L 205.398438 738.363281 L 0.265625 314.378906 Z M 419.523438 111.535156 " clip-rule="nonzero"/></clipPath><clipPath id="f04e02206a"><path d="M 419.523438 111.535156 L 624.65625 535.519531 L 205.398438 738.363281 L 0.265625 314.378906 Z M 419.523438 111.535156 " clip-rule="nonzero"/></clipPath><clipPath id="9d75a424da"><path d="M 349 97 L 709 97 L 709 616 L 349 616 Z M 349 97 " clip-rule="nonzero"/></clipPath><clipPath id="f744b593be"><path d="M 401.664062 684.359375 L 163.925781 277.765625 L 565.988281 42.675781 L 803.730469 449.269531 Z M 401.664062 684.359375 " clip-rule="nonzero"/></clipPath><clipPath id="53a591d5dc"><path d="M 401.664062 684.359375 L 163.925781 277.765625 L 565.988281 42.675781 L 803.730469 449.269531 Z M 401.664062 684.359375 " clip-rule="nonzero"/></clipPath><clipPath id="50e134b536"><path d="M 97 84 L 616 84 L 616 446 L 97 446 Z M 97 84 " clip-rule="nonzero"/></clipPath><clipPath id="8c0279de33"><path d="M 683.433594 394.9375 L 273.949219 627.671875 L 43.808594 222.753906 L 453.292969 -9.980469 Z M 683.433594 394.9375 " clip-rule="nonzero"/></clipPath><clipPath id="c4282abb90"><path d="M 683.433594 394.9375 L 273.949219 627.671875 L 43.808594 222.753906 L 453.292969 -9.980469 Z M 683.433594 394.9375 " clip-rule="nonzero"/></clipPath></defs><g clip-path="url(#1b7b838f2d)"><g clip-path="url(#9aa60e55f3)"><g clip-path="url(#3774d80b5c)"><path fill="#4682b4" d="M 228.964844 515.636719 C 198.417969 468.570312 185.089844 415.289062 187.394531 363.203125 C 161.011719 436.796875 168.074219 521.429688 213.921875 592.074219 C 291.882812 712.210938 452.460938 746.402344 572.582031 668.449219 C 645.636719 621.039062 686.898438 543.066406 690.480469 462.214844 C 672 513.765625 637.105469 559.898438 587.621094 592.011719 C 467.523438 669.953125 306.925781 635.773438 228.960938 515.636719 Z M 228.964844 515.636719 " fill-opacity="1" fill-rule="nonzero"/></g></g></g><g clip-path="url(#e573228997)"><g clip-path="url(#13a8c27085)"><g clip-path="url(#f04e02206a)"><path fill="#00308f" d="M 307.777344 226.148438 C 358.289062 201.710938 412.8125 195.128906 464.207031 203.914062 C 394.476562 168.558594 309.625 165.011719 233.8125 201.691406 C 104.894531 264.0625 50.941406 419.125 113.308594 548.027344 C 151.238281 626.425781 223.457031 677.089844 303.230469 690.726562 C 254.386719 665.957031 212.964844 625.582031 187.273438 572.484375 C 124.917969 443.601562 178.855469 288.519531 307.777344 226.144531 Z M 307.777344 226.148438 " fill-opacity="1" fill-rule="nonzero"/></g></g></g><g clip-path="url(#9d75a424da)"><g clip-path="url(#f744b593be)"><g clip-path="url(#53a591d5dc)"><path fill="#00308f" d="M 504.082031 561.339844 C 455.644531 589.664062 401.800781 600.496094 349.878906 595.769531 C 422.164062 625.550781 507.035156 622.433594 579.738281 579.921875 C 703.371094 507.636719 745 348.820312 672.71875 225.207031 C 628.757812 150.023438 552.789062 105.175781 472.191406 97.835938 C 522.828125 118.699219 567.289062 155.703125 597.0625 206.625 C 669.332031 330.222656 627.714844 489.054688 504.082031 561.34375 Z M 504.082031 561.339844 " fill-opacity="1" fill-rule="nonzero"/></g></g></g><g clip-path="url(#50e134b536)"><g clip-path="url(#8c0279de33)"><g clip-path="url(#c4282abb90)"><path fill="#4682b4" d="M 561.675781 291.015625 C 589.402344 339.800781 599.578125 393.773438 594.210938 445.632812 C 624.878906 373.71875 622.804688 288.816406 581.1875 215.59375 C 510.421875 91.085938 352.132812 47.511719 227.636719 118.269531 C 151.921875 161.304688 106.148438 236.714844 97.816406 317.21875 C 119.300781 266.84375 156.84375 222.839844 208.128906 193.691406 C 332.605469 122.945312 490.914062 166.507812 561.679688 291.019531 Z M 561.675781 291.015625 " fill-opacity="1" fill-rule="nonzero"/></g></g></g></svg>