<svg xmlns="http://www.w3.org/2000/svg" xmlns:xlink="http://www.w3.org/1999/xlink" width="1380" zoomAndPan="magnify" viewBox="0 0 1035 225" height="300" preserveAspectRatio="xMidYMid meet" version="1.0"><defs><g/><clipPath id="3874045cb6"><path d="M 36 99 L 215 99 L 215 219 L 36 219 Z M 36 99 " clip-rule="nonzero"/></clipPath><clipPath id="9279586467"><path d="M 11.773438 119.085938 L 147.667969 30.894531 L 234.632812 164.898438 L 98.738281 253.089844 Z M 11.773438 119.085938 " clip-rule="nonzero"/></clipPath><clipPath id="b5a33779a2"><path d="M 11.773438 119.085938 L 147.667969 30.894531 L 234.632812 164.898438 L 98.738281 253.089844 Z M 11.773438 119.085938 " clip-rule="nonzero"/></clipPath><clipPath id="c128405b24"><path d="M 7 35 L 137 35 L 137 213 L 7 213 Z M 7 35 " clip-rule="nonzero"/></clipPath><clipPath id="cb96dc580b"><path d="M 121.089844 13.445312 L 191.644531 159.273438 L 47.839844 228.847656 L -22.714844 83.019531 Z M 121.089844 13.445312 " clip-rule="nonzero"/></clipPath><clipPath id="c24c6eeb04"><path d="M 121.089844 13.445312 L 191.644531 159.273438 L 47.839844 228.847656 L -22.714844 83.019531 Z M 121.089844 13.445312 " clip-rule="nonzero"/></clipPath><clipPath id="9e73270bda"><path d="M 97 8 L 221 8 L 221 187 L 97 187 Z M 97 8 " clip-rule="nonzero"/></clipPath><clipPath id="6dc32ec27a"><path d="M 114.953125 210.222656 L 33.179688 70.375 L 171.085938 -10.257812 L 252.859375 129.589844 Z M 114.953125 210.222656 " clip-rule="nonzero"/></clipPath><clipPath id="d665c832d4"><path d="M 114.953125 210.222656 L 33.179688 70.375 L 171.085938 -10.257812 L 252.859375 129.589844 Z M 114.953125 210.222656 " clip-rule="nonzero"/></clipPath><clipPath id="b1cc1c677b"><path d="M 10 4 L 189 4 L 189 129 L 10 129 Z M 10 4 " clip-rule="nonzero"/></clipPath><clipPath id="c2d6f6d0cc"><path d="M 211.746094 110.800781 L 70.90625 190.851562 L -8.03125 51.964844 L 132.808594 -28.082031 Z M 211.746094 110.800781 " clip-rule="nonzero"/></clipPath><clipPath id="152947a25d"><path d="M 211.746094 110.800781 L 70.90625 190.851562 L -8.03125 51.964844 L 132.808594 -28.082031 Z M 211.746094 110.800781 " clip-rule="nonzero"/></clipPath></defs><g fill="#000000" fill-opacity="1"><g transform="translate(289.320484, 149.155324)"><g><path d="M 4.625 -37.578125 C 4.625 -44.898438 6.273438 -51.484375 9.578125 -57.328125 C 12.878906 -63.179688 17.382812 -67.757812 23.09375 -71.0625 C 28.800781 -74.363281 35.132812 -76.015625 42.09375 -76.015625 C 50.28125 -76.015625 57.421875 -74.039062 63.515625 -70.09375 C 69.617188 -66.144531 74.070312 -60.546875 76.875 -53.296875 L 65.140625 -53.296875 C 63.054688 -57.816406 60.054688 -61.296875 56.140625 -63.734375 C 52.234375 -66.179688 47.550781 -67.40625 42.09375 -67.40625 C 36.851562 -67.40625 32.148438 -66.179688 27.984375 -63.734375 C 23.828125 -61.296875 20.5625 -57.832031 18.1875 -53.34375 C 15.820312 -48.863281 14.640625 -43.609375 14.640625 -37.578125 C 14.640625 -31.617188 15.820312 -26.394531 18.1875 -21.90625 C 20.5625 -17.425781 23.828125 -13.960938 27.984375 -11.515625 C 32.148438 -9.078125 36.851562 -7.859375 42.09375 -7.859375 C 47.550781 -7.859375 52.234375 -9.0625 56.140625 -11.46875 C 60.054688 -13.875 63.054688 -17.335938 65.140625 -21.859375 L 76.875 -21.859375 C 74.070312 -14.679688 69.617188 -9.132812 63.515625 -5.21875 C 57.421875 -1.3125 50.28125 0.640625 42.09375 0.640625 C 35.132812 0.640625 28.800781 -0.988281 23.09375 -4.25 C 17.382812 -7.519531 12.878906 -12.0625 9.578125 -17.875 C 6.273438 -23.6875 4.625 -30.253906 4.625 -37.578125 Z M 4.625 -37.578125 "/></g></g></g><g fill="#000000" fill-opacity="1"><g transform="translate(372.445547, 149.155324)"><g><path d="M 34.03125 0.96875 C 28.5 0.96875 23.488281 -0.285156 19 -2.796875 C 14.519531 -5.304688 11.003906 -8.875 8.453125 -13.5 C 5.898438 -18.132812 4.625 -23.503906 4.625 -29.609375 C 4.625 -35.640625 5.929688 -40.96875 8.546875 -45.59375 C 11.171875 -50.226562 14.742188 -53.78125 19.265625 -56.25 C 23.796875 -58.726562 28.859375 -59.96875 34.453125 -59.96875 C 40.054688 -59.96875 45.117188 -58.726562 49.640625 -56.25 C 54.160156 -53.78125 57.726562 -50.25 60.34375 -45.65625 C 62.96875 -41.0625 64.28125 -35.710938 64.28125 -29.609375 C 64.28125 -23.503906 62.929688 -18.132812 60.234375 -13.5 C 57.546875 -8.875 53.90625 -5.304688 49.3125 -2.796875 C 44.71875 -0.285156 39.625 0.96875 34.03125 0.96875 Z M 34.03125 -7.640625 C 37.539062 -7.640625 40.835938 -8.460938 43.921875 -10.109375 C 47.015625 -11.765625 49.507812 -14.242188 51.40625 -17.546875 C 53.3125 -20.847656 54.265625 -24.867188 54.265625 -29.609375 C 54.265625 -34.347656 53.332031 -38.367188 51.46875 -41.671875 C 49.601562 -44.972656 47.160156 -47.429688 44.140625 -49.046875 C 41.128906 -50.660156 37.863281 -51.46875 34.34375 -51.46875 C 30.757812 -51.46875 27.476562 -50.660156 24.5 -49.046875 C 21.519531 -47.429688 19.128906 -44.972656 17.328125 -41.671875 C 15.535156 -38.367188 14.640625 -34.347656 14.640625 -29.609375 C 14.640625 -24.796875 15.519531 -20.738281 17.28125 -17.4375 C 19.039062 -14.132812 21.390625 -11.675781 24.328125 -10.0625 C 27.273438 -8.445312 30.507812 -7.640625 34.03125 -7.640625 Z M 34.03125 -7.640625 "/></g></g></g><g fill="#000000" fill-opacity="1"><g transform="translate(441.357516, 149.155324)"><g><path d="M 37.046875 -60.078125 C 44.222656 -60.078125 50.035156 -57.90625 54.484375 -53.5625 C 58.929688 -49.21875 61.15625 -42.957031 61.15625 -34.78125 L 61.15625 0 L 51.46875 0 L 51.46875 -33.375 C 51.46875 -39.257812 49.992188 -43.765625 47.046875 -46.890625 C 44.109375 -50.015625 40.09375 -51.578125 35 -51.578125 C 29.820312 -51.578125 25.707031 -49.960938 22.65625 -46.734375 C 19.613281 -43.503906 18.09375 -38.800781 18.09375 -32.625 L 18.09375 0 L 8.296875 0 L 8.296875 -59 L 18.09375 -59 L 18.09375 -50.609375 C 20.03125 -53.617188 22.664062 -55.945312 26 -57.59375 C 29.34375 -59.25 33.023438 -60.078125 37.046875 -60.078125 Z M 37.046875 -60.078125 "/></g></g></g><g fill="#000000" fill-opacity="1"><g transform="translate(510.269485, 149.155324)"><g><path d="M 62.125 -31.765625 C 62.125 -29.898438 62.015625 -27.925781 61.796875 -25.84375 L 14.640625 -25.84375 C 15.003906 -20.03125 17 -15.488281 20.625 -12.21875 C 24.25 -8.957031 28.644531 -7.328125 33.8125 -7.328125 C 38.039062 -7.328125 41.570312 -8.3125 44.40625 -10.28125 C 47.25 -12.257812 49.242188 -14.898438 50.390625 -18.203125 L 60.9375 -18.203125 C 59.363281 -12.523438 56.207031 -7.910156 51.46875 -4.359375 C 46.726562 -0.804688 40.84375 0.96875 33.8125 0.96875 C 28.207031 0.96875 23.195312 -0.285156 18.78125 -2.796875 C 14.375 -5.304688 10.910156 -8.875 8.390625 -13.5 C 5.878906 -18.132812 4.625 -23.503906 4.625 -29.609375 C 4.625 -35.710938 5.84375 -41.0625 8.28125 -45.65625 C 10.726562 -50.25 14.15625 -53.78125 18.5625 -56.25 C 22.976562 -58.726562 28.0625 -59.96875 33.8125 -59.96875 C 39.40625 -59.96875 44.351562 -58.75 48.65625 -56.3125 C 52.96875 -53.875 56.289062 -50.519531 58.625 -46.25 C 60.957031 -41.976562 62.125 -37.148438 62.125 -31.765625 Z M 52 -33.8125 C 52 -37.539062 51.171875 -40.75 49.515625 -43.4375 C 47.867188 -46.132812 45.628906 -48.179688 42.796875 -49.578125 C 39.960938 -50.984375 36.820312 -51.6875 33.375 -51.6875 C 28.425781 -51.6875 24.207031 -50.101562 20.71875 -46.9375 C 17.238281 -43.78125 15.25 -39.40625 14.75 -33.8125 Z M 52 -33.8125 "/></g></g></g><g fill="#000000" fill-opacity="1"><g transform="translate(577.027956, 149.155324)"><g><path d="M 4.625 -29.609375 C 4.625 -35.710938 5.84375 -41.039062 8.28125 -45.59375 C 10.726562 -50.15625 14.125 -53.691406 18.46875 -56.203125 C 22.8125 -58.710938 27.78125 -59.96875 33.375 -59.96875 C 40.625 -59.96875 46.597656 -58.207031 51.296875 -54.6875 C 56.003906 -51.175781 59.113281 -46.296875 60.625 -40.046875 L 50.0625 -40.046875 C 49.0625 -43.640625 47.109375 -46.476562 44.203125 -48.5625 C 41.296875 -50.644531 37.6875 -51.6875 33.375 -51.6875 C 27.78125 -51.6875 23.257812 -49.765625 19.8125 -45.921875 C 16.363281 -42.078125 14.640625 -36.640625 14.640625 -29.609375 C 14.640625 -22.503906 16.363281 -17.015625 19.8125 -13.140625 C 23.257812 -9.265625 27.78125 -7.328125 33.375 -7.328125 C 37.6875 -7.328125 41.273438 -8.328125 44.140625 -10.328125 C 47.015625 -12.335938 48.988281 -15.210938 50.0625 -18.953125 L 60.625 -18.953125 C 59.039062 -12.921875 55.878906 -8.09375 51.140625 -4.46875 C 46.398438 -0.84375 40.476562 0.96875 33.375 0.96875 C 27.78125 0.96875 22.8125 -0.285156 18.46875 -2.796875 C 14.125 -5.304688 10.726562 -8.859375 8.28125 -13.453125 C 5.84375 -18.046875 4.625 -23.429688 4.625 -29.609375 Z M 4.625 -29.609375 "/></g></g></g><g fill="#000000" fill-opacity="1"><g transform="translate(642.386645, 149.155324)"><g><path d="M 20.25 -50.921875 L 20.25 -16.15625 C 20.25 -13.28125 20.859375 -11.25 22.078125 -10.0625 C 23.296875 -8.882812 25.410156 -8.296875 28.421875 -8.296875 L 35.640625 -8.296875 L 35.640625 0 L 26.8125 0 C 21.351562 0 17.257812 -1.253906 14.53125 -3.765625 C 11.800781 -6.273438 10.4375 -10.40625 10.4375 -16.15625 L 10.4375 -50.921875 L 2.796875 -50.921875 L 2.796875 -59 L 10.4375 -59 L 10.4375 -73.859375 L 20.25 -73.859375 L 20.25 -59 L 35.640625 -59 L 35.640625 -50.921875 Z M 20.25 -50.921875 "/></g></g></g><g fill="#000000" fill-opacity="1"><g transform="translate(681.580328, 149.155324)"><g><path d="M 4.625 -29.71875 C 4.625 -35.75 5.84375 -41.039062 8.28125 -45.59375 C 10.726562 -50.15625 14.085938 -53.691406 18.359375 -56.203125 C 22.628906 -58.710938 27.382812 -59.96875 32.625 -59.96875 C 37.789062 -59.96875 42.273438 -58.851562 46.078125 -56.625 C 49.890625 -54.40625 52.726562 -51.609375 54.59375 -48.234375 L 54.59375 -59 L 64.5 -59 L 64.5 0 L 54.59375 0 L 54.59375 -10.984375 C 52.65625 -7.535156 49.765625 -4.679688 45.921875 -2.421875 C 42.078125 -0.160156 37.609375 0.96875 32.515625 0.96875 C 27.273438 0.96875 22.535156 -0.320312 18.296875 -2.90625 C 14.066406 -5.488281 10.726562 -9.113281 8.28125 -13.78125 C 5.84375 -18.445312 4.625 -23.757812 4.625 -29.71875 Z M 54.59375 -29.609375 C 54.59375 -34.054688 53.691406 -37.929688 51.890625 -41.234375 C 50.097656 -44.535156 47.675781 -47.066406 44.625 -48.828125 C 41.570312 -50.585938 38.21875 -51.46875 34.5625 -51.46875 C 30.90625 -51.46875 27.566406 -50.601562 24.546875 -48.875 C 21.535156 -47.15625 19.128906 -44.644531 17.328125 -41.34375 C 15.535156 -38.039062 14.640625 -34.164062 14.640625 -29.71875 C 14.640625 -25.195312 15.535156 -21.265625 17.328125 -17.921875 C 19.128906 -14.585938 21.535156 -12.039062 24.546875 -10.28125 C 27.566406 -8.519531 30.90625 -7.640625 34.5625 -7.640625 C 38.21875 -7.640625 41.570312 -8.519531 44.625 -10.28125 C 47.675781 -12.039062 50.097656 -14.585938 51.890625 -17.921875 C 53.691406 -21.265625 54.59375 -25.160156 54.59375 -29.609375 Z M 54.59375 -29.609375 "/></g></g></g><g fill="#000000" fill-opacity="1"><g transform="translate(754.36857, 149.155324)"><g><path d="M 4.625 -29.71875 C 4.625 -35.75 5.84375 -41.039062 8.28125 -45.59375 C 10.726562 -50.15625 14.085938 -53.691406 18.359375 -56.203125 C 22.628906 -58.710938 27.421875 -59.96875 32.734375 -59.96875 C 37.328125 -59.96875 41.597656 -58.910156 45.546875 -56.796875 C 49.492188 -54.679688 52.507812 -51.898438 54.59375 -48.453125 L 54.59375 -79.671875 L 64.5 -79.671875 L 64.5 0 L 54.59375 0 L 54.59375 -11.09375 C 52.65625 -7.570312 49.78125 -4.679688 45.96875 -2.421875 C 42.164062 -0.160156 37.71875 0.96875 32.625 0.96875 C 27.382812 0.96875 22.628906 -0.320312 18.359375 -2.90625 C 14.085938 -5.488281 10.726562 -9.113281 8.28125 -13.78125 C 5.84375 -18.445312 4.625 -23.757812 4.625 -29.71875 Z M 54.59375 -29.609375 C 54.59375 -34.054688 53.691406 -37.929688 51.890625 -41.234375 C 50.097656 -44.535156 47.675781 -47.066406 44.625 -48.828125 C 41.570312 -50.585938 38.21875 -51.46875 34.5625 -51.46875 C 30.90625 -51.46875 27.566406 -50.601562 24.546875 -48.875 C 21.535156 -47.15625 19.128906 -44.644531 17.328125 -41.34375 C 15.535156 -38.039062 14.640625 -34.164062 14.640625 -29.71875 C 14.640625 -25.195312 15.535156 -21.265625 17.328125 -17.921875 C 19.128906 -14.585938 21.535156 -12.039062 24.546875 -10.28125 C 27.566406 -8.519531 30.90625 -7.640625 34.5625 -7.640625 C 38.21875 -7.640625 41.570312 -8.519531 44.625 -10.28125 C 47.675781 -12.039062 50.097656 -14.585938 51.890625 -17.921875 C 53.691406 -21.265625 54.59375 -25.160156 54.59375 -29.609375 Z M 54.59375 -29.609375 "/></g></g></g><g fill="#000000" fill-opacity="1"><g transform="translate(827.156865, 149.155324)"><g><path d="M 34.03125 0.96875 C 28.5 0.96875 23.488281 -0.285156 19 -2.796875 C 14.519531 -5.304688 11.003906 -8.875 8.453125 -13.5 C 5.898438 -18.132812 4.625 -23.503906 4.625 -29.609375 C 4.625 -35.640625 5.929688 -40.96875 8.546875 -45.59375 C 11.171875 -50.226562 14.742188 -53.78125 19.265625 -56.25 C 23.796875 -58.726562 28.859375 -59.96875 34.453125 -59.96875 C 40.054688 -59.96875 45.117188 -58.726562 49.640625 -56.25 C 54.160156 -53.78125 57.726562 -50.25 60.34375 -45.65625 C 62.96875 -41.0625 64.28125 -35.710938 64.28125 -29.609375 C 64.28125 -23.503906 62.929688 -18.132812 60.234375 -13.5 C 57.546875 -8.875 53.90625 -5.304688 49.3125 -2.796875 C 44.71875 -0.285156 39.625 0.96875 34.03125 0.96875 Z M 34.03125 -7.640625 C 37.539062 -7.640625 40.835938 -8.460938 43.921875 -10.109375 C 47.015625 -11.765625 49.507812 -14.242188 51.40625 -17.546875 C 53.3125 -20.847656 54.265625 -24.867188 54.265625 -29.609375 C 54.265625 -34.347656 53.332031 -38.367188 51.46875 -41.671875 C 49.601562 -44.972656 47.160156 -47.429688 44.140625 -49.046875 C 41.128906 -50.660156 37.863281 -51.46875 34.34375 -51.46875 C 30.757812 -51.46875 27.476562 -50.660156 24.5 -49.046875 C 21.519531 -47.429688 19.128906 -44.972656 17.328125 -41.671875 C 15.535156 -38.367188 14.640625 -34.347656 14.640625 -29.609375 C 14.640625 -24.796875 15.519531 -20.738281 17.28125 -17.4375 C 19.039062 -14.132812 21.390625 -11.675781 24.328125 -10.0625 C 27.273438 -8.445312 30.507812 -7.640625 34.03125 -7.640625 Z M 34.03125 -7.640625 "/></g></g></g><g fill="#000000" fill-opacity="1"><g transform="translate(896.068834, 149.155324)"><g><path d="M 29.171875 0.96875 C 24.648438 0.96875 20.59375 0.195312 17 -1.34375 C 13.414062 -2.882812 10.582031 -5.035156 8.5 -7.796875 C 6.425781 -10.566406 5.28125 -13.742188 5.0625 -17.328125 L 15.1875 -17.328125 C 15.46875 -14.390625 16.847656 -11.988281 19.328125 -10.125 C 21.804688 -8.257812 25.054688 -7.328125 29.078125 -7.328125 C 32.804688 -7.328125 35.742188 -8.148438 37.890625 -9.796875 C 40.046875 -11.453125 41.125 -13.535156 41.125 -16.046875 C 41.125 -18.628906 39.972656 -20.546875 37.671875 -21.796875 C 35.378906 -23.054688 31.832031 -24.296875 27.03125 -25.515625 C 22.644531 -26.660156 19.070312 -27.828125 16.3125 -29.015625 C 13.550781 -30.203125 11.179688 -31.960938 9.203125 -34.296875 C 7.234375 -36.628906 6.25 -39.695312 6.25 -43.5 C 6.25 -46.507812 7.144531 -49.269531 8.9375 -51.78125 C 10.726562 -54.300781 13.273438 -56.296875 16.578125 -57.765625 C 19.878906 -59.234375 23.648438 -59.96875 27.890625 -59.96875 C 34.421875 -59.96875 39.695312 -58.316406 43.71875 -55.015625 C 47.738281 -51.710938 49.890625 -47.191406 50.171875 -41.453125 L 40.375 -41.453125 C 40.15625 -44.535156 38.914062 -47.007812 36.65625 -48.875 C 34.394531 -50.75 31.363281 -51.6875 27.5625 -51.6875 C 24.039062 -51.6875 21.238281 -50.929688 19.15625 -49.421875 C 17.082031 -47.910156 16.046875 -45.9375 16.046875 -43.5 C 16.046875 -41.5625 16.671875 -39.960938 17.921875 -38.703125 C 19.179688 -37.453125 20.757812 -36.445312 22.65625 -35.6875 C 24.5625 -34.9375 27.203125 -34.09375 30.578125 -33.15625 C 34.816406 -32.007812 38.265625 -30.878906 40.921875 -29.765625 C 43.578125 -28.660156 45.851562 -26.992188 47.75 -24.765625 C 49.65625 -22.535156 50.644531 -19.628906 50.71875 -16.046875 C 50.71875 -12.816406 49.816406 -9.910156 48.015625 -7.328125 C 46.222656 -4.742188 43.691406 -2.710938 40.421875 -1.234375 C 37.160156 0.234375 33.410156 0.96875 29.171875 0.96875 Z M 29.171875 0.96875 "/></g></g></g><g clip-path="url(#3874045cb6)"><g clip-path="url(#9279586467)"><g clip-path="url(#b5a33779a2)"><path fill="#004f98" d="M 55.601562 152.183594 C 45.125 136.039062 40.566406 117.757812 41.382812 99.875 C 32.28125 125.148438 34.671875 154.199219 50.394531 178.429688 C 77.136719 219.636719 132.308594 231.304688 173.625 204.488281 C 198.753906 188.183594 212.96875 161.398438 214.238281 133.640625 C 207.863281 151.34375 195.847656 167.199219 178.828125 178.242188 C 137.519531 205.050781 82.339844 193.390625 55.597656 152.183594 Z M 55.601562 152.183594 " fill-opacity="1" fill-rule="nonzero"/></g></g></g><g clip-path="url(#c128405b24)"><g clip-path="url(#cb96dc580b)"><g clip-path="url(#c24c6eeb04)"><path fill="#004f98" d="M 82.78125 52.800781 C 100.105469 44.421875 118.816406 42.179688 136.457031 45.21875 C 112.515625 33.035156 83.394531 31.785156 57.390625 44.367188 C 13.171875 65.757812 -5.285156 119.046875 16.167969 163.382812 C 29.214844 190.347656 54.015625 207.792969 81.398438 212.511719 C 64.625 203.980469 50.394531 190.082031 41.558594 171.820312 C 20.113281 127.488281 38.5625 74.195312 82.78125 52.800781 Z M 82.78125 52.800781 " fill-opacity="1" fill-rule="nonzero"/></g></g></g><g clip-path="url(#9e73270bda)"><g clip-path="url(#6dc32ec27a)"><g clip-path="url(#d665c832d4)"><path fill="#004f98" d="M 150.054688 167.984375 C 133.441406 177.699219 114.964844 181.402344 97.140625 179.753906 C 121.964844 190.023438 151.09375 188.988281 176.03125 174.40625 C 218.4375 149.609375 232.65625 95.042969 207.796875 52.523438 C 192.675781 26.660156 166.582031 11.214844 138.914062 8.660156 C 156.300781 15.851562 171.578125 28.585938 181.820312 46.101562 C 206.679688 88.617188 192.460938 143.191406 150.054688 167.988281 Z M 150.054688 167.984375 " fill-opacity="1" fill-rule="nonzero"/></g></g></g><g clip-path="url(#b1cc1c677b)"><g clip-path="url(#c2d6f6d0cc)"><g clip-path="url(#152947a25d)"><path fill="#004f98" d="M 169.941406 75.183594 C 179.453125 91.914062 182.925781 110.433594 181.0625 128.238281 C 191.632812 103.542969 190.953125 74.402344 176.679688 49.285156 C 152.40625 6.582031 98.015625 -8.308594 55.195312 16.027344 C 29.152344 30.832031 13.386719 56.734375 10.488281 84.367188 C 17.894531 67.070312 30.820312 51.949219 48.457031 41.925781 C 91.273438 17.589844 145.671875 32.476562 169.941406 75.183594 Z M 169.941406 75.183594 " fill-opacity="1" fill-rule="nonzero"/></g></g></g></svg>